<svg xmlns="http://www.w3.org/2000/svg" width="24" height="39" viewBox="0 0 24 39" fill="none">
    <path d="M23.355 3.2223C23.5611 3.03997 23.7221 2.82548 23.829 2.5911C23.9359 2.35671 23.9866 2.10701 23.9781 1.85625C23.9696 1.60549 23.9022 1.35858 23.7796 1.12963C23.657 0.90067 23.4817 0.694147 23.2637 0.521849C23.0457 0.349551 22.7892 0.214853 22.509 0.125445C22.2287 0.0360372 21.9301 -0.00632971 21.6303 0.000763921C21.3304 0.00785755 21.0352 0.0642725 20.7614 0.166788C20.4877 0.269303 20.2407 0.415911 20.0347 0.598241L0.624205 17.7864C0.223352 18.141 0 18.6104 0 19.0984C0 19.5864 0.223352 20.0558 0.624205 20.4104L20.0347 37.6005C20.2394 37.7868 20.4863 37.9372 20.761 38.0431C21.0358 38.1489 21.333 38.2081 21.6353 38.2171C21.9377 38.226 22.2391 38.1847 22.5222 38.0954C22.8053 38.0061 23.0643 37.8707 23.2842 37.697C23.5042 37.5233 23.6807 37.3148 23.8035 37.0836C23.9263 36.8523 23.9929 36.603 23.9995 36.3501C24.006 36.0971 23.9525 35.8456 23.8418 35.6101C23.7312 35.3746 23.5657 35.1599 23.355 34.9783L5.4243 19.0984L23.355 3.2223Z" fill="black" fill-opacity="0.71"/>
  </svg>